<svg id="Layer_1" enable-background="new 0 0 512 512" height="512" viewBox="0 0 512 512" width="512" xmlns="http://www.w3.org/2000/svg"><g><g clip-rule="evenodd" fill-rule="evenodd"><path d="m186.522 359.65h125.661v86.883h-125.661z" fill="#365e7d"/><path d="m283.071 365.915h29.112v74.381h-29.112z" fill="#2b4d66"/><path d="m466.05 30.685c21.147 0 38.467 17.32 38.467 38.467v258.268h-497.005v-258.268c0-21.175 17.292-38.467 38.466-38.467z" fill="#b1e4f9"/><path d="m466.05 30.685c21.147 0 38.467 17.32 38.467 38.467v258.268h-29.141v-258.268c0-21.147-17.291-38.467-38.466-38.467z" fill="#90d8f9"/><path d="m504.517 296.947v30.473c0 21.175-17.32 38.495-38.467 38.495h-420.072c-21.175 0-38.466-17.32-38.466-38.495v-30.473zm-155.143 143.349c11.282 0 20.523 9.213 20.523 20.495s-9.241 20.523-20.523 20.523h-200.043c-11.311 0-20.523-9.241-20.523-20.523s9.212-20.495 20.523-20.495z" fill="#407093"/><path d="m504.517 296.947v30.473c0 21.175-17.32 38.495-38.467 38.495h-29.141c21.175 0 38.466-17.32 38.466-38.495v-30.473zm-155.143 143.349c11.282 0 20.523 9.213 20.523 20.495s-9.241 20.523-20.523 20.523h-29.111c11.282 0 20.523-9.241 20.523-20.523s-9.241-20.495-20.523-20.495z" fill="#365e7d"/><path d="m70.272 130.438h128.496c3.203 0 5.839 2.636 5.839 5.839v117.356c0 3.203-2.636 5.81-5.839 5.81h-128.496c-3.203 0-5.811-2.607-5.811-5.81v-117.356c0-3.203 2.608-5.839 5.811-5.839z" fill="#ffe07d"/><path d="m169.656 130.438h29.112c3.203 0 5.839 2.636 5.839 5.839v117.356c0 3.203-2.636 5.81-5.839 5.81h-29.112c3.203 0 5.811-2.607 5.811-5.81v-117.356c0-3.203-2.608-5.839-5.811-5.839z" fill="#ffd064"/><path d="m155.426 259.444h-41.783v-69.194c0-3.203 2.608-5.811 5.811-5.811h30.133c3.203 0 5.839 2.608 5.839 5.811z" fill="#d68756"/><path d="m138.899 68.557 83.736 73.191c2.495 2.183 1.389 3.827-1.446 3.827h-173.339c-3.26 0-3.685-1.871-1.417-3.827l83.708-73.191c3.117-2.721 5.952-2.466 8.758 0z" fill="#fc7070"/><path d="m138.899 68.557 83.736 73.191c2.495 2.183 1.389 3.827-1.446 3.827h-29.112c2.835 0 3.941-1.645 1.417-3.827l-73.532-64.29 10.176-8.901c3.12-2.721 5.955-2.466 8.761 0z" fill="#d15a63"/><g fill="#95d6a4"><path d="m297.018 108.611c12.104 0 21.94-9.865 21.94-21.941 0-12.075-9.836-21.94-21.94-21.94-12.076 0-21.941 9.865-21.941 21.94 0 12.076 9.865 21.941 21.941 21.941z"/><path d="m297.018 259.444c12.104 0 21.94-9.836 21.94-21.94 0-12.076-9.836-21.94-21.94-21.94-12.076 0-21.941 9.864-21.941 21.94 0 12.104 9.865 21.94 21.941 21.94z"/><path d="m297.018 184.042c12.104 0 21.94-9.864 21.94-21.94 0-12.104-9.836-21.941-21.94-21.941-12.076 0-21.941 9.837-21.941 21.941 0 12.075 9.865 21.94 21.941 21.94z"/></g></g><path d="m14.996 238.694c0 4.139-3.345 7.512-7.483 7.512-4.139 0-7.512-3.374-7.512-7.512v-169.542c0-12.643 5.159-24.151 13.493-32.485s19.843-13.493 32.485-13.493h420.071c12.642 0 24.123 5.159 32.457 13.493 8.306 8.306 13.465 19.814 13.465 32.485 0 4.11-3.345 7.455-7.455 7.455-4.139 0-7.484-3.345-7.484-7.455 0-8.504-3.486-16.243-9.128-21.884-5.612-5.613-13.351-9.1-21.855-9.1h-420.072c-8.504 0-16.242 3.487-21.883 9.1-5.613 5.641-9.1 13.379-9.1 21.884v169.542zm338.658-157.976c-4.138 0-7.483-3.345-7.483-7.512 0-4.139 3.345-7.484 7.483-7.484h106.443c4.138 0 7.512 3.345 7.512 7.484 0 4.166-3.374 7.512-7.512 7.512zm0 150.861c-4.138 0-7.483-3.373-7.483-7.512s3.345-7.512 7.483-7.512h106.443c4.138 0 7.512 3.373 7.512 7.512s-3.374 7.512-7.512 7.512zm0 26.873c-4.138 0-7.483-3.345-7.483-7.483s3.345-7.512 7.483-7.512h85.636c4.139 0 7.483 3.374 7.483 7.512 0 4.139-3.345 7.483-7.483 7.483zm0-102.303c-4.138 0-7.483-3.373-7.483-7.513 0-4.138 3.345-7.483 7.483-7.483h106.443c4.138 0 7.512 3.345 7.512 7.483 0 4.139-3.374 7.513-7.512 7.513zm0 26.872c-4.138 0-7.483-3.345-7.483-7.483s3.345-7.512 7.483-7.512h85.636c4.139 0 7.483 3.373 7.483 7.512s-3.345 7.483-7.483 7.483zm0-75.402c-4.138 0-7.483-3.373-7.483-7.512s3.345-7.512 7.483-7.512h85.636c4.139 0 7.483 3.373 7.483 7.512s-3.345 7.512-7.483 7.512zm-56.636 25.03c8.135 0 15.505 3.288 20.834 8.617 5.33 5.33 8.618 12.7 8.618 20.835 0 8.107-3.288 15.477-8.618 20.807-5.329 5.329-12.699 8.617-20.834 8.617-8.136 0-15.478-3.288-20.807-8.617s-8.617-12.699-8.617-20.807c0-8.135 3.288-15.505 8.617-20.835 5.329-5.329 12.671-8.617 20.807-8.617zm10.205 19.219c-2.608-2.608-6.208-4.224-10.205-4.224-3.969 0-7.597 1.616-10.205 4.224-2.608 2.636-4.224 6.236-4.224 10.233 0 3.969 1.616 7.597 4.224 10.205s6.236 4.224 10.205 4.224c3.997 0 7.597-1.616 10.205-4.224 2.636-2.608 4.252-6.236 4.252-10.205 0-3.996-1.616-7.597-4.252-10.233zm-10.205 56.212c8.135 0 15.505 3.288 20.834 8.617 5.33 5.329 8.618 12.699 8.618 20.807 0 8.135-3.288 15.505-8.618 20.835-5.329 5.329-12.699 8.618-20.834 8.618-8.136 0-15.478-3.289-20.807-8.618s-8.617-12.699-8.617-20.835c0-8.107 3.288-15.478 8.617-20.807s12.671-8.617 20.807-8.617zm10.205 19.219c-2.608-2.608-6.208-4.224-10.205-4.224-3.969 0-7.597 1.616-10.205 4.224s-4.224 6.236-4.224 10.205c0 3.997 1.616 7.597 4.224 10.233 2.608 2.608 6.236 4.224 10.205 4.224 3.997 0 7.597-1.616 10.205-4.224 2.636-2.636 4.252-6.236 4.252-10.233 0-3.969-1.616-7.597-4.252-10.205zm-10.205-170.081c8.135 0 15.505 3.317 20.834 8.618 5.33 5.329 8.618 12.699 8.618 20.835s-3.288 15.478-8.618 20.807c-5.329 5.33-12.699 8.618-20.834 8.618-8.136 0-15.478-3.288-20.807-8.618-5.329-5.329-8.617-12.671-8.617-20.807 0-8.135 3.288-15.505 8.617-20.835 5.329-5.301 12.671-8.618 20.807-8.618zm10.205 19.248c-2.608-2.636-6.208-4.252-10.205-4.252-3.969 0-7.597 1.616-10.205 4.252-2.608 2.608-4.224 6.208-4.224 10.205 0 3.969 1.616 7.597 4.224 10.205 2.608 2.607 6.236 4.224 10.205 4.224 3.997 0 7.597-1.616 10.205-4.224 2.636-2.608 4.252-6.236 4.252-10.205 0-3.998-1.616-7.597-4.252-10.205zm-196.33 18.85c-3.09 2.722-7.824 2.381-10.545-.709-2.721-3.118-2.409-7.824.708-10.545l28.545-24.974c2.863-2.494 7.144-2.409 9.893.057l92.439 80.817c3.118 2.721 3.43 7.427.708 10.545-1.417 1.616-3.458 2.58-5.613 2.58h-14.939v106.356c0 4.139-3.345 7.512-7.483 7.512-46.715 0-93.431 0-140.146 0-4.139 0-7.512-3.374-7.512-7.512v-106.356h-14.91c-4.139 0-7.512-3.374-7.512-7.512 0-2.466 1.219-4.678 3.062-6.038l37.899-33.109c3.09-2.722 7.824-2.41 10.545.68 2.721 3.118 2.41 7.853-.709 10.574l-23.358 20.409h145.107l-72.54-63.439zm2.75 81.61h41.783c4.139 0 7.483 3.374 7.483 7.512v67.522h34.187v-98.873h-125.152v98.873h34.187v-67.522c0-4.138 3.373-7.512 7.512-7.512zm34.271 15.024h-26.788v60.01h26.788zm79.371 146.978c-4.139 0-7.512-3.373-7.512-7.512s3.373-7.483 7.512-7.483h44.136c4.139 0 7.512 3.345 7.512 7.483s-3.374 7.512-7.512 7.512zm269.719-34.497h-482.008v22.989c0 8.532 3.487 16.271 9.1 21.883 5.641 5.613 13.379 9.1 21.883 9.1h420.071c8.504 0 16.243-3.487 21.855-9.1 5.613-5.612 9.1-13.351 9.1-21.883v-22.989zm-482.008-14.996h482.009v-186.324c0-4.138 3.374-7.483 7.512-7.483s7.483 3.345 7.483 7.483v224.309c0 12.671-5.159 24.151-13.493 32.485-8.334 8.335-19.815 13.494-32.457 13.494h-146.355v59.386h29.679c7.71 0 14.712 3.147 19.787 8.221 5.074 5.074 8.249 12.076 8.249 19.786 0 7.711-3.175 14.74-8.249 19.814s-12.076 8.221-19.787 8.221h-200.043c-7.71 0-14.74-3.147-19.814-8.221s-8.22-12.103-8.22-19.814c0-7.71 3.146-14.712 8.22-19.786s12.076-8.221 19.814-8.221h29.679v-59.386h-133.032c-12.642 0-24.151-5.159-32.485-13.494-8.334-8.334-13.493-19.814-13.493-32.485v-54.738c0-4.167 3.373-7.512 7.512-7.512 4.138 0 7.483 3.345 7.483 7.512v16.753zm251.351 158.345c-4.139 0-7.512-3.345-7.512-7.483 0-4.167 3.374-7.512 7.512-7.512h38.353v-59.386h-110.694v59.386h38.353c4.139 0 7.513 3.345 7.513 7.512 0 4.139-3.374 7.483-7.513 7.483h-45.836-37.191c-3.572 0-6.832 1.475-9.213 3.828-2.353 2.381-3.827 5.612-3.827 9.184s1.474 6.831 3.827 9.184c2.381 2.381 5.641 3.855 9.213 3.855h200.043c3.572 0 6.832-1.474 9.185-3.855 2.381-2.353 3.827-5.612 3.827-9.184s-1.446-6.803-3.827-9.184c-2.353-2.353-5.613-3.828-9.185-3.828h-37.191z"/></g></svg>